# xmcd
# 
# Track frame offsets:
#     150
#     18231
#     35360
#     52232
#     72485
#     92346
#     111812
#     131085
#     147911
#     162718
#     179011
#     194599
#     213194
#     233134
#     251162
#     268999
# 
# Disc length: 3819
# 
# Revision: 9
# Processed by: cddbd v1.5.2PL0 Copyright (c) Steve Scherf et al.
# Submitted via: fre:ac v1.0.27
# 
DISCID=f90ee910
DTITLE=Various Artist - ONE PIECE MEMORIAL BEST [Disc1]
DYEAR=2010
DGENRE=Anime
TTITLE0=きただにひろし - ウィーアー！
TTITLE1=Folder 5 - Believe
TTITLE2=ザ・ベイビースターズ - ヒカリヘ
TTITLE3=BON-BON BLANCO - BON VOYAGE！
TTITLE4=BOYSTYLE - ココロのちず
TTITLE5=D-51 - BRAND NEW WORLD
TTITLE6=7人の麦わら海賊団 - ウィーアー！ ～7人の麦わら海賊団篇～
TTITLE7=タッキー＆翼 - Crazy Rainbow
TTITLE8=5050 - Jungle P
TTITLE9=東方神起 - ウィーアー！ ～アニメーション ワンピース 10周年 Ver.～
TTITLE10=東方神起 - Share The World
TTITLE11=矢口真里とストローハット - 風をさがして
TTITLE12=大槻真希 - memories
TTITLE13=大槻真希 - RUN! RUN! RUN!
TTITLE14=TOMATO CUBE - 私がいるよ
TTITLE15=推定少女 - しょうちのすけ
EXTD=
EXTT0=
EXTT1=
EXTT2=
EXTT3=
EXTT4=
EXTT5=
EXTT6=
EXTT7=
EXTT8=
EXTT9=
EXTT10=
EXTT11=
EXTT12=
EXTT13=
EXTT14=
EXTT15=
PLAYORDER=
